<?xml version="1.0" encoding="iso-8859-1"?>
<!-- Uploaded to: SVG Repo, www.svgrepo.com, Generator: SVG Repo Mixer Tools -->
<svg height="800px" width="800px" version="1.1" id="Capa_1" xmlns="http://www.w3.org/2000/svg" xmlns:xlink="http://www.w3.org/1999/xlink" 
	 viewBox="0 0 55.375 55.375" xml:space="preserve">
<g>
	<path style="fill:#010002;" d="M44.686,25.193l-2,29.25c-0.036,0.525-0.473,0.932-0.998,0.932h-28
		c-0.526,0-0.961-0.407-0.998-0.932l-2-29.125c-0.038-0.551,0.378-1.028,0.929-1.066c0.548-0.028,1.028,0.378,1.066,0.929
		l0.004,0.064l1.933,28.13h26.133l1.931-28.246l0.005-0.072c0.038-0.55,0.505-0.956,1.066-0.929
		C44.307,24.165,44.723,24.642,44.686,25.193z M12.021,22.042c0.256,0,0.512-0.098,0.707-0.293L32.77,1.707
		c0.391-0.391,0.391-1.023,0-1.414s-1.023-0.391-1.414,0L11.314,20.335c-0.391,0.391-0.391,1.023,0,1.414
		C11.509,21.944,11.765,22.042,12.021,22.042z M20.188,24.375c-0.497,0-0.892,0.37-0.969,0.846
		c-0.008,0.052-0.031,0.099-0.031,0.154v25c0,0.553,0.448,1,1,1s1-0.447,1-1v-25c0-0.057-0.023-0.107-0.033-0.162
		C21.075,24.741,20.683,24.375,20.188,24.375z M35.188,51.375c0.553,0,1-0.447,1-1v-25c0-0.078-0.028-0.147-0.044-0.221
		c-0.103-0.442-0.482-0.779-0.956-0.779c-0.477,0-0.857,0.34-0.957,0.787c-0.016,0.071-0.043,0.137-0.043,0.213v25
		C34.188,50.928,34.635,51.375,35.188,51.375z M28.188,24.375c-0.486,0-0.873,0.354-0.963,0.814
		c-0.012,0.063-0.037,0.12-0.037,0.186v25c0,0.553,0.448,1,1,1s1-0.447,1-1v-25c0-0.069-0.026-0.129-0.039-0.193
		C29.056,24.725,28.672,24.375,28.188,24.375z"/>
</g>
</svg>